<svg width="205" height="89" viewBox="0 0 205 89" fill="none" xmlns="http://www.w3.org/2000/svg">
<rect width="205" height="89" rx="8" fill="#060505"/>
<g clip-path="url(#clip0_1_3377)">
<path d="M66.7858 45.1824C66.7647 44.2508 67.0042 43.3318 67.4774 42.529C67.9505 41.7262 68.6385 41.0715 69.4638 40.6388C68.9435 39.9168 68.263 39.3253 67.4755 38.9107C66.6881 38.4961 65.8153 38.2697 64.9256 38.2493C63.0206 38.0996 60.9447 39.3583 60.184 39.3583C59.3805 39.3583 57.5373 38.303 56.0908 38.303C53.1012 38.3513 49.9238 40.6844 49.9238 45.4403C49.9376 46.9232 50.1984 48.3935 50.6953 49.7907C51.3812 51.757 53.8564 56.5796 56.4392 56.4993C57.7897 56.4673 58.743 55.54 60.5004 55.54C62.2014 55.54 63.0859 56.4993 64.5936 56.4993C67.1975 56.4619 69.4373 52.0768 70.0911 50.1071C69.1128 49.7082 68.2757 49.0267 67.6868 48.1495C67.0979 47.2724 66.784 46.2396 66.7851 45.1831L66.7858 45.1824ZM63.7533 36.3843C64.2274 35.8627 64.5869 35.2476 64.8087 34.5786C65.0306 33.9096 65.1098 33.2015 65.0413 32.5C63.6376 32.6498 62.34 33.3168 61.4012 34.3711C60.9204 34.8847 60.5505 35.4918 60.3146 36.1545C60.0786 36.8173 59.9816 37.5215 60.0296 38.2234C60.7523 38.2385 61.4681 38.0793 62.1163 37.7591C62.7645 37.439 63.326 36.9674 63.7533 36.3843Z" fill="white"/>
</g>
<g clip-path="url(#clip1_1_3377)">
<path d="M78.196 49.5L82.468 38.188H84.66L88.916 49.5H87.092L86.26 47.228H80.852L80.02 49.5H78.196ZM81.412 45.708H85.7L83.556 39.804L81.412 45.708ZM90.0295 52.572V41.068H91.5975L91.6775 42.268C91.9762 41.8307 92.3655 41.5053 92.8455 41.292C93.3255 41.068 93.8482 40.956 94.4135 40.956C95.2562 40.956 95.9495 41.148 96.4935 41.532C97.0375 41.9053 97.4429 42.4227 97.7095 43.084C97.9762 43.7347 98.1095 44.4653 98.1095 45.276C98.1095 46.108 97.9709 46.8493 97.6935 47.5C97.4269 48.1507 97.0109 48.6627 96.4455 49.036C95.8909 49.4093 95.1869 49.596 94.3335 49.596C93.9282 49.596 93.5549 49.5533 93.2135 49.468C92.8829 49.3827 92.5895 49.26 92.3335 49.1C92.0882 48.9293 91.8695 48.732 91.6775 48.508V52.572H90.0295ZM94.1255 48.124C94.7015 48.124 95.1602 47.996 95.5015 47.74C95.8429 47.4733 96.0882 47.1267 96.2375 46.7C96.3869 46.2733 96.4615 45.8093 96.4615 45.308C96.4615 44.7853 96.3815 44.3107 96.2215 43.884C96.0722 43.4467 95.8215 43.1 95.4695 42.844C95.1282 42.5773 94.6695 42.444 94.0935 42.444C93.5709 42.444 93.1282 42.5773 92.7655 42.844C92.4029 43.1 92.1255 43.4467 91.9335 43.884C91.7522 44.3213 91.6615 44.796 91.6615 45.308C91.6615 45.8307 91.7469 46.3107 91.9175 46.748C92.0989 47.1747 92.3709 47.5107 92.7335 47.756C93.1069 48.0013 93.5709 48.124 94.1255 48.124ZM99.8108 52.572V41.068H101.379L101.459 42.268C101.757 41.8307 102.147 41.5053 102.627 41.292C103.107 41.068 103.629 40.956 104.195 40.956C105.037 40.956 105.731 41.148 106.275 41.532C106.819 41.9053 107.224 42.4227 107.491 43.084C107.757 43.7347 107.891 44.4653 107.891 45.276C107.891 46.108 107.752 46.8493 107.475 47.5C107.208 48.1507 106.792 48.6627 106.227 49.036C105.672 49.4093 104.968 49.596 104.115 49.596C103.709 49.596 103.336 49.5533 102.995 49.468C102.664 49.3827 102.371 49.26 102.115 49.1C101.869 48.9293 101.651 48.732 101.459 48.508V52.572H99.8108ZM103.907 48.124C104.483 48.124 104.941 47.996 105.283 47.74C105.624 47.4733 105.869 47.1267 106.019 46.7C106.168 46.2733 106.243 45.8093 106.243 45.308C106.243 44.7853 106.163 44.3107 106.003 43.884C105.853 43.4467 105.603 43.1 105.251 42.844C104.909 42.5773 104.451 42.444 103.875 42.444C103.352 42.444 102.909 42.5773 102.547 42.844C102.184 43.1 101.907 43.4467 101.715 43.884C101.533 44.3213 101.443 44.796 101.443 45.308C101.443 45.8307 101.528 46.3107 101.699 46.748C101.88 47.1747 102.152 47.5107 102.515 47.756C102.888 48.0013 103.352 48.124 103.907 48.124ZM112.744 49.596C112.349 49.596 111.955 49.5587 111.56 49.484C111.165 49.4093 110.797 49.276 110.456 49.084C110.115 48.892 109.827 48.636 109.592 48.316C109.357 47.9853 109.208 47.58 109.144 47.1H110.824C110.909 47.356 111.059 47.564 111.272 47.724C111.496 47.884 111.741 48.0013 112.008 48.076C112.285 48.1507 112.557 48.188 112.824 48.188C112.984 48.188 113.16 48.1773 113.352 48.156C113.555 48.1347 113.747 48.0867 113.928 48.012C114.109 47.9373 114.259 47.8307 114.376 47.692C114.493 47.5427 114.552 47.3453 114.552 47.1C114.552 46.908 114.499 46.748 114.392 46.62C114.296 46.492 114.157 46.3907 113.976 46.316C113.805 46.2307 113.597 46.1667 113.352 46.124C112.872 46.0173 112.355 45.916 111.8 45.82C111.256 45.7133 110.776 45.532 110.36 45.276C110.211 45.18 110.077 45.0733 109.96 44.956C109.843 44.828 109.741 44.684 109.656 44.524C109.571 44.364 109.507 44.1933 109.464 44.012C109.421 43.8307 109.4 43.6333 109.4 43.42C109.4 42.9827 109.485 42.6093 109.656 42.3C109.837 41.9907 110.083 41.74 110.392 41.548C110.701 41.3453 111.053 41.196 111.448 41.1C111.843 41.004 112.259 40.956 112.696 40.956C113.261 40.956 113.773 41.0467 114.232 41.228C114.691 41.4093 115.069 41.676 115.368 42.028C115.667 42.38 115.843 42.8227 115.896 43.356H114.344C114.28 43.068 114.093 42.8387 113.784 42.668C113.485 42.4867 113.107 42.396 112.648 42.396C112.488 42.396 112.312 42.4067 112.12 42.428C111.939 42.4493 111.763 42.4973 111.592 42.572C111.421 42.6467 111.283 42.7533 111.176 42.892C111.069 43.02 111.016 43.1907 111.016 43.404C111.016 43.6067 111.064 43.7773 111.16 43.916C111.267 44.0547 111.416 44.1667 111.608 44.252C111.811 44.3373 112.04 44.4067 112.296 44.46C112.659 44.5453 113.048 44.6253 113.464 44.7C113.891 44.7747 114.237 44.8547 114.504 44.94C114.856 45.036 115.155 45.1747 115.4 45.356C115.656 45.5373 115.848 45.7667 115.976 46.044C116.115 46.3213 116.184 46.6573 116.184 47.052C116.184 47.564 116.083 47.9853 115.88 48.316C115.677 48.636 115.405 48.892 115.064 49.084C114.733 49.276 114.36 49.4093 113.944 49.484C113.539 49.5587 113.139 49.596 112.744 49.596ZM121.012 49.596C120.106 49.596 119.455 49.3507 119.06 48.86C118.676 48.3587 118.484 47.66 118.484 46.764V42.54H117.14V41.068H118.484V38.62H120.132V41.068H122.708V42.54H120.132V46.492C120.132 46.7907 120.159 47.0627 120.212 47.308C120.276 47.5533 120.394 47.7453 120.564 47.884C120.735 48.0227 120.98 48.0973 121.3 48.108C121.546 48.108 121.759 48.0653 121.94 47.98C122.132 47.8947 122.287 47.7987 122.404 47.692L123.044 48.924C122.842 49.084 122.628 49.2173 122.404 49.324C122.191 49.42 121.967 49.4893 121.732 49.532C121.498 49.5747 121.258 49.596 121.012 49.596ZM127.993 49.596C127.118 49.596 126.377 49.42 125.769 49.068C125.161 48.7053 124.697 48.1987 124.377 47.548C124.067 46.8973 123.913 46.1453 123.913 45.292C123.913 44.428 124.073 43.676 124.393 43.036C124.713 42.3853 125.177 41.8787 125.785 41.516C126.393 41.1427 127.134 40.956 128.009 40.956C128.883 40.956 129.625 41.1427 130.233 41.516C130.841 41.8787 131.299 42.3853 131.609 43.036C131.918 43.6867 132.073 44.444 132.073 45.308C132.073 46.1507 131.913 46.8973 131.593 47.548C131.283 48.1987 130.825 48.7053 130.217 49.068C129.619 49.42 128.878 49.596 127.993 49.596ZM127.993 48.124C128.569 48.124 129.033 47.996 129.385 47.74C129.747 47.484 130.014 47.1427 130.185 46.716C130.355 46.2787 130.441 45.804 130.441 45.292C130.441 44.78 130.355 44.3107 130.185 43.884C130.014 43.4573 129.747 43.116 129.385 42.86C129.033 42.5933 128.569 42.46 127.993 42.46C127.427 42.46 126.963 42.5933 126.601 42.86C126.238 43.116 125.971 43.4573 125.801 43.884C125.641 44.3107 125.561 44.78 125.561 45.292C125.561 45.8147 125.641 46.2893 125.801 46.716C125.971 47.1427 126.238 47.484 126.601 47.74C126.963 47.996 127.427 48.124 127.993 48.124ZM133.764 49.5V41.068H135.316L135.396 42.284C135.609 41.9533 135.855 41.692 136.132 41.5C136.409 41.308 136.713 41.1693 137.044 41.084C137.375 40.9987 137.721 40.956 138.084 40.956C138.18 40.956 138.271 40.956 138.356 40.956C138.441 40.956 138.521 40.956 138.596 40.956V42.54H138.084C137.476 42.54 136.969 42.6627 136.564 42.908C136.169 43.1533 135.876 43.4947 135.684 43.932C135.503 44.3693 135.412 44.8707 135.412 45.436V49.5H133.764ZM143.398 49.596C142.512 49.596 141.771 49.4147 141.174 49.052C140.576 48.6893 140.123 48.188 139.814 47.548C139.515 46.8973 139.366 46.1507 139.366 45.308C139.366 44.4547 139.52 43.7027 139.83 43.052C140.15 42.4013 140.608 41.8893 141.206 41.516C141.814 41.1427 142.544 40.956 143.398 40.956C144.048 40.956 144.614 41.0787 145.094 41.324C145.574 41.5587 145.968 41.8787 146.278 42.284C146.598 42.6893 146.832 43.1427 146.982 43.644C147.131 44.1347 147.195 44.6467 147.174 45.18C147.174 45.2973 147.168 45.4093 147.158 45.516C147.147 45.6227 147.136 45.7347 147.126 45.852H141.03C141.062 46.2787 141.168 46.668 141.35 47.02C141.542 47.372 141.808 47.6547 142.15 47.868C142.491 48.0707 142.912 48.172 143.414 48.172C143.691 48.172 143.958 48.14 144.214 48.076C144.48 48.0013 144.715 47.8893 144.918 47.74C145.131 47.58 145.28 47.3773 145.366 47.132H147.03C146.891 47.6973 146.64 48.1667 146.278 48.54C145.926 48.9027 145.494 49.1693 144.982 49.34C144.48 49.5107 143.952 49.596 143.398 49.596ZM141.062 44.54H145.542C145.531 44.124 145.435 43.756 145.254 43.436C145.072 43.1053 144.822 42.8493 144.502 42.668C144.182 42.476 143.798 42.38 143.35 42.38C142.859 42.38 142.448 42.4813 142.118 42.684C141.798 42.8867 141.547 43.1533 141.366 43.484C141.195 43.804 141.094 44.156 141.062 44.54Z" fill="white"/>
</g>
<defs>
<clipPath id="clip0_1_3377">
<rect width="20.1681" height="24" fill="white" transform="translate(49.916 32.5)"/>
</clipPath>
<clipPath id="clip1_1_3377">
<rect width="77" height="20" fill="white" transform="translate(78.084 34.5)"/>
</clipPath>
</defs>
</svg>
