<svg width="46" height="12" viewBox="0 0 46 12" fill="none" xmlns="http://www.w3.org/2000/svg">
<path d="M0.800049 5.09111C0.358221 5.09111 4.88605e-05 5.44929 4.88162e-05 5.89111C4.87719e-05 6.33294 0.358221 6.69111 0.800049 6.69111L0.800049 5.89111L0.800049 5.09111ZM44.9831 6.4568C45.2955 6.14438 45.2955 5.63785 44.9831 5.32543L39.892 0.234262C39.5795 -0.0781573 39.073 -0.0781574 38.7606 0.234262C38.4482 0.546681 38.4482 1.05321 38.7606 1.36563L43.2861 5.89112L38.7606 10.4166C38.4482 10.729 38.4482 11.2356 38.7606 11.548C39.073 11.8604 39.5795 11.8604 39.892 11.548L44.9831 6.4568ZM0.800049 5.89111L0.800049 6.69111L44.4174 6.69112L44.4174 5.89112L44.4174 5.09112L0.800049 5.09111L0.800049 5.89111Z" fill="#5C61FA"/>
</svg>
