<svg width="137" height="304" viewBox="0 0 137 304" fill="none" xmlns="http://www.w3.org/2000/svg">
<g opacity="0.13">
<path d="M224.445 22.5891L245.976 0.000796572L285.935 5.42883L293.27 45.0815L271.739 67.6698L265.709 26.6481L224.445 22.5891Z" fill="#26F0D2"/>
<path d="M196.39 52.0223L217.921 29.434L257.879 34.862L265.215 74.5147L243.684 97.103L237.653 56.0813L196.39 52.0223Z" fill="#26F0D2"/>
<path d="M168.334 81.4555L189.865 58.8672L229.824 64.2952L237.159 103.948L215.628 126.536L209.597 85.5145L168.334 81.4555Z" fill="#26F0D2"/>
<path d="M140.278 110.889L161.809 88.3004L201.768 93.7284L209.104 133.381L187.572 155.969L181.542 114.948L140.278 110.889Z" fill="#26F0D2"/>
<path d="M112.223 140.322L133.754 117.734L173.712 123.162L181.048 162.814L159.517 185.403L153.486 144.381L112.223 140.322Z" fill="#26F0D2"/>
<path d="M84.167 169.755L105.698 147.167L145.657 152.595L152.992 192.248L131.461 214.836L125.43 173.814L84.167 169.755Z" fill="#26F0D2"/>
<path d="M56.1113 199.188L77.6424 176.6L117.601 182.028L124.937 221.681L103.405 244.269L97.3747 203.247L56.1113 199.188Z" fill="#26F0D2"/>
<path d="M28.0557 228.621L49.5867 206.033L89.5453 211.461L96.8809 251.114L75.3498 273.702L69.3191 232.681L28.0557 228.621Z" fill="#26F0D2"/>
<path d="M0 258.055L21.5311 235.466L61.4896 240.894L68.8253 280.547L47.2942 303.135L41.2634 262.114L0 258.055Z" fill="#26F0D2"/>
</g>
</svg>
