<svg width="23" height="16" viewBox="0 0 23 16" fill="none" xmlns="http://www.w3.org/2000/svg">
<g clip-path="url(#clip0_433_558)">
<path d="M21.1252 15.06H1.46482C0.657404 15.06 0 14.415 0 13.6185V1.43717C0 0.644996 0.657404 0 1.46482 0H21.1208C21.9326 0 22.59 0.644996 22.59 1.43717V13.6185C22.59 14.415 21.9326 15.06 21.1252 15.06Z" fill="#505278"/>
<path d="M21.1271 0H11.2969V15.06H21.1271C21.9389 15.06 22.5919 14.415 22.5919 13.6228V1.43717C22.5919 0.644996 21.9345 0 21.1271 0Z" fill="#424566"/>
<path d="M11.7847 0.000422581C11.6347 4.44613 7.90209 8.01309 3.33555 8.01309C2.15311 8.01309 1.02361 7.775 0 7.33779V5.4028C0.9839 5.96122 2.12222 6.27723 3.33555 6.27723C6.92701 6.27723 9.86548 3.48513 10.0155 -0.00390625H11.7847V0.000422581Z" fill="#575982"/>
<path d="M11.2969 0V2.51505C11.5837 1.72287 11.7557 0.878753 11.7866 0H11.2969Z" fill="#505278"/>
<path d="M22.5913 8.80471V10.5622C21.5324 10.3631 20.5 10.2765 19.4764 10.3761C17.6277 10.5579 15.9114 11.4063 14.0715 13.047C13.7759 13.311 13.4759 13.5837 13.1891 13.8478C12.7479 14.2504 12.3067 14.6573 11.8434 15.0555H8.98438C10.0433 14.3629 10.9919 13.4928 11.9846 12.5838C12.2802 12.3154 12.5802 12.034 12.8847 11.7656C15.0201 9.86527 17.0585 8.87397 19.2999 8.6532C20.4073 8.54498 21.528 8.63156 22.5913 8.80471Z" fill="#505278"/>
<path d="M8.98438 15.0593H11.2963V13.2109C10.5418 13.8906 9.7962 14.5269 8.98438 15.0593Z" fill="#575982"/>
<path d="M4.73514 7.32692H2.5688C2.23789 7.32692 1.96875 7.06286 1.96875 6.7382V5.327C1.96875 5.00234 2.23789 4.73828 2.5688 4.73828H4.73514C5.06605 4.73828 5.33519 5.00234 5.33519 5.327V6.7382C5.33078 7.06719 5.06605 7.32692 4.73514 7.32692Z" fill="#424566"/>
<path d="M4.73891 7.29239H2.56815C2.2593 7.29239 2.00781 7.04565 2.00781 6.74263V5.32711C2.00781 5.02409 2.2593 4.77734 2.56815 4.77734H4.73891C5.04776 4.77734 5.29925 5.02409 5.29925 5.32711V6.74263C5.29925 7.04565 5.04776 7.29239 4.73891 7.29239Z" fill="#FEBD55"/>
<path d="M5.29925 6.0799V5.99332H4.1521V5.61239L4.44771 5.32235H5.29925C5.29925 5.29205 5.29483 5.26175 5.29042 5.23578H4.42565C4.41241 5.23578 4.40359 5.24011 4.39476 5.24876L4.08592 5.55178H3.69765V4.78125H3.60941V5.55178H3.22555L2.91671 5.24876C2.90788 5.24011 2.89465 5.23578 2.88582 5.23578H2.01664C2.01222 5.26175 2.00781 5.29205 2.00781 5.32235H2.86817L3.15937 5.60806V5.99332H2.00781V6.0799H3.15937V6.46516L2.86817 6.75087H2.00781C2.00781 6.78117 2.01222 6.81147 2.01664 6.83744H2.88582C2.89906 6.83744 2.90788 6.83312 2.91671 6.82446L3.22555 6.52144H3.60941V7.29197H3.69765V6.52144H4.08592L4.39476 6.82446C4.40359 6.83312 4.41241 6.83744 4.42565 6.83744H5.29042C5.29483 6.81147 5.29925 6.78117 5.29925 6.75087H4.44771L4.1521 6.46084V6.0799H5.29925ZM4.06386 6.43486H3.24762V5.63403H4.06386V6.43486Z" fill="#B5613C"/>
<path d="M20.2261 7.26666C20.2041 7.26666 20.1864 7.26233 20.1688 7.25367C20.1026 7.22337 20.0761 7.14545 20.1114 7.08052C20.4511 6.41821 20.4511 5.66066 20.1114 4.99835C20.0805 4.93342 20.107 4.8555 20.1688 4.8252C20.235 4.79489 20.3144 4.82087 20.3453 4.88147C20.7247 5.61737 20.7247 6.46149 20.3453 7.1974C20.3188 7.24068 20.2747 7.26666 20.2261 7.26666ZM19.7717 7.01991C20.1291 6.39656 20.1291 5.67798 19.7717 5.05462C19.7364 4.99402 19.657 4.96805 19.5908 5.00701C19.529 5.04164 19.5025 5.11956 19.5423 5.18449C19.8555 5.72992 19.8555 6.35327 19.5423 6.89438C19.507 6.95498 19.529 7.03723 19.5908 7.07186C19.6128 7.08485 19.6349 7.08917 19.657 7.08917C19.7011 7.08485 19.7452 7.05887 19.7717 7.01991ZM19.2069 6.84243C19.5555 6.34462 19.5555 5.72559 19.2069 5.22345C19.1672 5.16284 19.0834 5.14986 19.0216 5.18882C18.9599 5.22778 18.9466 5.31003 18.9863 5.37063C19.2687 5.77754 19.2687 6.28834 18.9863 6.69525C18.9466 6.75585 18.9599 6.83377 19.0216 6.87706C19.0437 6.89438 19.0702 6.89871 19.0966 6.89871C19.1408 6.90303 19.1805 6.88139 19.2069 6.84243ZM18.6113 6.67794C18.8054 6.50478 18.9113 6.27535 18.9113 6.03727C18.9113 5.79918 18.8054 5.56976 18.6113 5.3966C18.5584 5.34898 18.4745 5.34898 18.426 5.40526C18.3775 5.45721 18.3775 5.53945 18.4348 5.58707C18.5716 5.71261 18.6466 5.87277 18.6466 6.03727C18.6466 6.20176 18.5716 6.36193 18.4348 6.48747C18.3819 6.53508 18.3775 6.61733 18.426 6.66928C18.4525 6.69525 18.4878 6.71257 18.5231 6.71257C18.5539 6.71257 18.5848 6.69958 18.6113 6.67794Z" fill="#CAD4FF"/>
<path d="M11.1154 12.8769H2.13236C2.05736 12.8769 2 12.8206 2 12.7471C2 12.6735 2.05736 12.6172 2.13236 12.6172H11.1154C11.1904 12.6172 11.2478 12.6735 11.2478 12.7471C11.2478 12.8206 11.186 12.8769 11.1154 12.8769Z" fill="#E6EAFF"/>
<path d="M20.5038 12.8769H18.8008C18.7258 12.8769 18.6684 12.8206 18.6684 12.7471C18.6684 12.6735 18.7258 12.6172 18.8008 12.6172H20.5038C20.5788 12.6172 20.6362 12.6735 20.6362 12.7471C20.6362 12.8206 20.5744 12.8769 20.5038 12.8769ZM18.0772 12.7471C18.0772 12.6735 18.0198 12.6172 17.9448 12.6172H16.2417C16.1667 12.6172 16.1094 12.6735 16.1094 12.7471C16.1094 12.8206 16.1667 12.8769 16.2417 12.8769H17.9448C18.0198 12.8769 18.0772 12.8163 18.0772 12.7471Z" fill="#CAD4FF"/>
<path d="M2.14018 2.95022C2.06517 2.95022 2.00781 2.89394 2.00781 2.82035V2.30955C2.00781 2.23596 2.06517 2.17969 2.14018 2.17969C2.21518 2.17969 2.27254 2.23596 2.27254 2.30955V2.81603C2.27254 2.88962 2.21518 2.95022 2.14018 2.95022ZM2.99171 2.82035V2.30955C2.99171 2.23596 2.93436 2.17969 2.85935 2.17969C2.78434 2.17969 2.72699 2.23596 2.72699 2.30955V2.81603C2.72699 2.88962 2.78434 2.94589 2.85935 2.94589C2.93436 2.95022 2.99171 2.88962 2.99171 2.82035ZM3.7153 2.82035V2.30955C3.7153 2.23596 3.65794 2.17969 3.58294 2.17969C3.50793 2.17969 3.45057 2.23596 3.45057 2.30955V2.81603C3.45057 2.88962 3.50793 2.94589 3.58294 2.94589C3.65353 2.95022 3.7153 2.88962 3.7153 2.82035ZM4.43447 2.82035V2.30955C4.43447 2.23596 4.37712 2.17969 4.30211 2.17969C4.2271 2.17969 4.16975 2.23596 4.16975 2.30955V2.81603C4.16975 2.88962 4.2271 2.94589 4.30211 2.94589C4.37712 2.95022 4.43447 2.88962 4.43447 2.82035Z" fill="#E6EAFF"/>
<path d="M2.40794 10.6721H2.38588C2.16527 10.6721 1.98438 10.4946 1.98438 10.2781V9.66346C1.98438 9.44701 2.16527 9.26953 2.38588 9.26953H2.40794C2.62854 9.26953 2.80944 9.44701 2.80944 9.66346V10.2781C2.80944 10.4946 2.63296 10.6721 2.40794 10.6721ZM2.38588 9.52926C2.31087 9.52926 2.2491 9.58986 2.2491 9.66346V10.2781C2.2491 10.3517 2.31087 10.4123 2.38588 10.4123H2.40794C2.48294 10.4123 2.54471 10.3517 2.54471 10.2781V9.66346C2.54471 9.58986 2.48294 9.52926 2.40794 9.52926H2.38588Z" fill="#E6EAFF"/>
<path d="M3.47825 10.6721H3.45619C3.23558 10.6721 3.05469 10.4946 3.05469 10.2781V9.66346C3.05469 9.44701 3.23558 9.26953 3.45619 9.26953H3.47825C3.69886 9.26953 3.87975 9.44701 3.87975 9.66346V10.2781C3.87975 10.4946 3.70327 10.6721 3.47825 10.6721ZM3.45619 9.52926C3.38118 9.52926 3.31941 9.58986 3.31941 9.66346V10.2781C3.31941 10.3517 3.38118 10.4123 3.45619 10.4123H3.47825C3.55326 10.4123 3.61503 10.3517 3.61503 10.2781V9.66346C3.61503 9.58986 3.55326 9.52926 3.47825 9.52926H3.45619Z" fill="#E6EAFF"/>
<path d="M4.54856 10.6721H4.5265C4.3059 10.6721 4.125 10.4946 4.125 10.2781V9.66346C4.125 9.44701 4.3059 9.26953 4.5265 9.26953H4.54856C4.76917 9.26953 4.95006 9.44701 4.95006 9.66346V10.2781C4.95006 10.4946 4.76917 10.6721 4.54856 10.6721ZM4.5265 9.52926C4.4515 9.52926 4.38973 9.58986 4.38973 9.66346V10.2781C4.38973 10.3517 4.4515 10.4123 4.5265 10.4123H4.54856C4.62357 10.4123 4.68534 10.3517 4.68534 10.2781V9.66346C4.68534 9.58986 4.62357 9.52926 4.54856 9.52926H4.5265Z" fill="#E6EAFF"/>
<path d="M5.62669 10.6721H5.60463C5.38402 10.6721 5.20312 10.4946 5.20312 10.2781V9.66346C5.20312 9.44701 5.38402 9.26953 5.60463 9.26953H5.62669C5.84729 9.26953 6.02819 9.44701 6.02819 9.66346V10.2781C6.02819 10.4946 5.84729 10.6721 5.62669 10.6721ZM5.60463 9.52926C5.52962 9.52926 5.46785 9.58986 5.46785 9.66346V10.2781C5.46785 10.3517 5.52962 10.4123 5.60463 10.4123H5.62669C5.70169 10.4123 5.76346 10.3517 5.76346 10.2781V9.66346C5.76346 9.58986 5.70169 9.52926 5.62669 9.52926H5.60463Z" fill="#E6EAFF"/>
<path d="M7.26731 10.6721H7.24525C7.02465 10.6721 6.84375 10.4946 6.84375 10.2781V9.66346C6.84375 9.44701 7.02465 9.26953 7.24525 9.26953H7.26731C7.48792 9.26953 7.66881 9.44701 7.66881 9.66346V10.2781C7.66881 10.4946 7.48792 10.6721 7.26731 10.6721ZM7.24525 9.52926C7.17025 9.52926 7.10848 9.58986 7.10848 9.66346V10.2781C7.10848 10.3517 7.17025 10.4123 7.24525 10.4123H7.26731C7.34232 10.4123 7.40409 10.3517 7.40409 10.2781V9.66346C7.40409 9.58986 7.34232 9.52926 7.26731 9.52926H7.24525Z" fill="#E6EAFF"/>
<path d="M8.33763 10.6721H8.31556C8.09496 10.6721 7.91406 10.4946 7.91406 10.2781V9.66346C7.91406 9.44701 8.09496 9.26953 8.31556 9.26953H8.33763C8.55823 9.26953 8.73913 9.44701 8.73913 9.66346V10.2781C8.73913 10.4946 8.55823 10.6721 8.33763 10.6721ZM8.31556 9.52926C8.24056 9.52926 8.17879 9.58986 8.17879 9.66346V10.2781C8.17879 10.3517 8.24056 10.4123 8.31556 10.4123H8.33763C8.41263 10.4123 8.4744 10.3517 8.4744 10.2781V9.66346C8.4744 9.58986 8.41263 9.52926 8.33763 9.52926H8.31556Z" fill="#E6EAFF"/>
<path d="M9.40794 10.6721H9.38588C9.16527 10.6721 8.98438 10.4946 8.98438 10.2781V9.66346C8.98438 9.44701 9.16527 9.26953 9.38588 9.26953H9.40794C9.62854 9.26953 9.80944 9.44701 9.80944 9.66346V10.2781C9.80944 10.4946 9.62854 10.6721 9.40794 10.6721ZM9.38588 9.52926C9.31087 9.52926 9.2491 9.58986 9.2491 9.66346V10.2781C9.2491 10.3517 9.31087 10.4123 9.38588 10.4123H9.40794C9.48294 10.4123 9.54471 10.3517 9.54471 10.2781V9.66346C9.54471 9.58986 9.48294 9.52926 9.40794 9.52926H9.38588Z" fill="#E6EAFF"/>
<path d="M10.4861 10.6721H10.464C10.2434 10.6721 10.0625 10.4946 10.0625 10.2781V9.66346C10.0625 9.44701 10.2434 9.26953 10.464 9.26953H10.4861C10.7067 9.26953 10.8876 9.44701 10.8876 9.66346V10.2781C10.8876 10.4946 10.7067 10.6721 10.4861 10.6721ZM10.464 9.52926C10.389 9.52926 10.3272 9.58986 10.3272 9.66346V10.2781C10.3272 10.3517 10.389 10.4123 10.464 10.4123H10.4861C10.5611 10.4123 10.6228 10.3517 10.6228 10.2781V9.66346C10.6228 9.58986 10.5611 9.52926 10.4861 9.52926H10.464Z" fill="#E6EAFF"/>
<path d="M12.1267 10.6721H12.1046C11.884 10.6721 11.7031 10.4946 11.7031 10.2781V9.66346C11.7031 9.44701 11.884 9.26953 12.1046 9.26953H12.1267C12.3473 9.26953 12.5282 9.44701 12.5282 9.66346V10.2781C12.5282 10.4946 12.3473 10.6721 12.1267 10.6721ZM12.1046 9.52926C12.0296 9.52926 11.9679 9.58986 11.9679 9.66346V10.2781C11.9679 10.3517 12.0296 10.4123 12.1046 10.4123H12.1267C12.2017 10.4123 12.2635 10.3517 12.2635 10.2781V9.66346C12.2635 9.58986 12.2017 9.52926 12.1267 9.52926H12.1046Z" fill="#CAD4FF"/>
<path d="M13.197 10.6721H13.1749C12.9543 10.6721 12.7734 10.4946 12.7734 10.2781V9.66346C12.7734 9.44701 12.9543 9.26953 13.1749 9.26953H13.197C13.4176 9.26953 13.5985 9.44701 13.5985 9.66346V10.2781C13.5985 10.4946 13.4176 10.6721 13.197 10.6721ZM13.1749 9.52926C13.0999 9.52926 13.0382 9.58986 13.0382 9.66346V10.2781C13.0382 10.3517 13.0999 10.4123 13.1749 10.4123H13.197C13.272 10.4123 13.3338 10.3517 13.3338 10.2781V9.66346C13.3338 9.58986 13.272 9.52926 13.197 9.52926H13.1749Z" fill="#CAD4FF"/>
<path d="M14.2673 10.6721H14.2453C14.0246 10.6721 13.8438 10.4946 13.8438 10.2781V9.66346C13.8438 9.44701 14.0246 9.26953 14.2453 9.26953H14.2673C14.4879 9.26953 14.6688 9.44701 14.6688 9.66346V10.2781C14.6688 10.4946 14.4879 10.6721 14.2673 10.6721ZM14.2453 9.52926C14.1702 9.52926 14.1085 9.58986 14.1085 9.66346V10.2781C14.1085 10.3517 14.1702 10.4123 14.2453 10.4123H14.2673C14.3423 10.4123 14.4041 10.3517 14.4041 10.2781V9.66346C14.4041 9.58986 14.3423 9.52926 14.2673 9.52926H14.2453Z" fill="#CAD4FF"/>
<path d="M15.3454 10.6721H15.3234C15.1028 10.6721 14.9219 10.4946 14.9219 10.2781V9.66346C14.9219 9.44701 15.1028 9.26953 15.3234 9.26953H15.3454C15.566 9.26953 15.7469 9.44701 15.7469 9.66346V10.2781C15.7469 10.4946 15.566 10.6721 15.3454 10.6721ZM15.3234 9.52926C15.2484 9.52926 15.1866 9.58986 15.1866 9.66346V10.2781C15.1866 10.3517 15.2484 10.4123 15.3234 10.4123H15.3454C15.4204 10.4123 15.4822 10.3517 15.4822 10.2781V9.66346C15.4822 9.58986 15.4204 9.52926 15.3454 9.52926H15.3234Z" fill="#CAD4FF"/>
<path d="M16.9939 10.6721H16.9718C16.7512 10.6721 16.5703 10.4946 16.5703 10.2781V9.66346C16.5703 9.44701 16.7512 9.26953 16.9718 9.26953H16.9939C17.2145 9.26953 17.3954 9.44701 17.3954 9.66346V10.2781C17.3954 10.4946 17.2145 10.6721 16.9939 10.6721ZM16.9718 9.52926C16.8968 9.52926 16.835 9.58986 16.835 9.66346V10.2781C16.835 10.3517 16.8968 10.4123 16.9718 10.4123H16.9939C17.0689 10.4123 17.1307 10.3517 17.1307 10.2781V9.66346C17.1307 9.58986 17.0689 9.52926 16.9939 9.52926H16.9718Z" fill="#CAD4FF"/>
<path d="M18.0642 10.6721H18.0421C17.8215 10.6721 17.6406 10.4946 17.6406 10.2781V9.66346C17.6406 9.44701 17.8215 9.26953 18.0421 9.26953H18.0642C18.2848 9.26953 18.4657 9.44701 18.4657 9.66346V10.2781C18.4657 10.4946 18.2848 10.6721 18.0642 10.6721ZM18.0421 9.52926C17.9671 9.52926 17.9054 9.58986 17.9054 9.66346V10.2781C17.9054 10.3517 17.9671 10.4123 18.0421 10.4123H18.0642C18.1392 10.4123 18.201 10.3517 18.201 10.2781V9.66346C18.201 9.58986 18.1392 9.52926 18.0642 9.52926H18.0421Z" fill="#CAD4FF"/>
<path d="M19.1423 10.6721H19.1203C18.8996 10.6721 18.7188 10.4946 18.7188 10.2781V9.66346C18.7188 9.44701 18.8996 9.26953 19.1203 9.26953H19.1423C19.3629 9.26953 19.5438 9.44701 19.5438 9.66346V10.2781C19.5438 10.4946 19.3629 10.6721 19.1423 10.6721ZM19.1203 9.52926C19.0452 9.52926 18.9835 9.58986 18.9835 9.66346V10.2781C18.9835 10.3517 19.0452 10.4123 19.1203 10.4123H19.1423C19.2173 10.4123 19.2791 10.3517 19.2791 10.2781V9.66346C19.2791 9.58986 19.2173 9.52926 19.1423 9.52926H19.1203Z" fill="#CAD4FF"/>
<path d="M20.2048 10.6721H20.1828C19.9621 10.6721 19.7812 10.4946 19.7812 10.2781V9.66346C19.7812 9.44701 19.9621 9.26953 20.1828 9.26953H20.2048C20.4254 9.26953 20.6063 9.44701 20.6063 9.66346V10.2781C20.6063 10.4946 20.4254 10.6721 20.2048 10.6721ZM20.1828 9.52926C20.1077 9.52926 20.046 9.58986 20.046 9.66346V10.2781C20.046 10.3517 20.1077 10.4123 20.1828 10.4123H20.2048C20.2798 10.4123 20.3416 10.3517 20.3416 10.2781V9.66346C20.3416 9.58986 20.2798 9.52926 20.2048 9.52926H20.1828Z" fill="#CAD4FF"/>
</g>
<defs>
<clipPath id="clip0_433_558">
<rect width="22.59" height="15.06" fill="white"/>
</clipPath>
</defs>
</svg>
