<svg width="315" height="28" viewBox="0 0 315 28" fill="none" xmlns="http://www.w3.org/2000/svg">
<g opacity="0.4">
<path d="M269.412 -27L295.257 -27L314.837 0.0562725L295.257 27.1125H269.412L290.558 0.0562725L269.412 -27Z" fill="#00FF6B"/>
<path d="M235.736 -27H261.581L281.16 0.0562725L261.581 27.1125H235.736L256.882 0.0562725L235.736 -27Z" fill="#00FF6B"/>
<path d="M202.059 -27L227.904 -27L247.484 0.0562725L227.904 27.1125H202.059L223.205 0.0562725L202.059 -27Z" fill="#00FF6B"/>
<path d="M168.383 -27H194.228L213.807 0.0562725L194.228 27.1125L168.383 27.1125L189.529 0.0562725L168.383 -27Z" fill="#00FF6B"/>
<path d="M134.706 -27L160.551 -27L180.13 0.0562725L160.551 27.1125H134.706L155.852 0.0562725L134.706 -27Z" fill="#00FF6B"/>
<path d="M101.03 -27H126.874L146.454 0.0562725L126.874 27.1125H101.03L122.175 0.0562725L101.03 -27Z" fill="#00FF6B"/>
<path d="M67.3531 -27H93.1979L112.777 0.0562725L93.1979 27.1125H67.3531L88.4988 0.0562725L67.3531 -27Z" fill="#00FF6B"/>
<path d="M33.6766 -27H59.5214L79.1007 0.0562725L59.5214 27.1125H33.6766L54.8223 0.0562725L33.6766 -27Z" fill="#00FF6B"/>
<path d="M0 -27H25.8448L45.4242 0.0562725L25.8448 27.1125H0L21.1457 0.0562725L0 -27Z" fill="#00FF6B"/>
</g>
</svg>
