<svg width="41" height="41" viewBox="0 0 41 41" fill="none" xmlns="http://www.w3.org/2000/svg">
<path d="M20.2715 11.0117C22.8331 11.0117 23.1539 11.0227 24.1641 11.0703C24.9462 11.0858 25.7205 11.2343 26.4531 11.5088C27.0798 11.7516 27.6488 12.1225 28.124 12.5977C28.5994 13.0729 28.971 13.6427 29.2139 14.2695C29.4544 14.9102 29.5983 15.5827 29.6406 16.2646L29.6523 16.5576C29.6957 17.5633 29.6992 17.8843 29.6992 20.4453C29.6992 23.0064 29.6889 23.3272 29.6445 24.333C29.6289 25.1152 29.4797 25.8895 29.2051 26.6221C28.9626 27.2489 28.5925 27.8187 28.1172 28.2939C27.6419 28.7692 27.0722 29.1394 26.4453 29.3818C25.7128 29.6569 24.9385 29.805 24.1562 29.8203C23.1505 29.8646 22.8287 29.876 20.2676 29.876C17.7069 29.876 17.3856 29.8646 16.3799 29.8203C15.5976 29.8047 14.8235 29.6565 14.0908 29.3818C13.4643 29.1389 12.895 28.7683 12.4199 28.293C11.945 27.8178 11.5747 27.2486 11.332 26.6221C11.0562 25.8893 10.9073 25.1148 10.8916 24.332C10.8477 23.3261 10.8359 23.0028 10.8359 20.4434C10.8359 17.8844 10.8464 17.5634 10.8926 16.5537C10.9082 15.7717 11.0574 14.998 11.332 14.2656C11.5699 13.637 11.9414 13.0677 12.4209 12.5967C12.8922 12.1149 13.4637 11.7426 14.0947 11.5059C14.8271 11.231 15.6007 11.0827 16.3828 11.0674C17.3887 11.0235 17.7097 11.0117 20.2715 11.0117ZM20.2793 12.7246C17.7623 12.7246 17.4635 12.735 16.4688 12.7793C15.8709 12.7859 15.2782 12.8954 14.7178 13.1035C14.3083 13.2543 13.9375 13.4952 13.6328 13.8076C13.3175 14.1105 13.0757 14.4819 12.9258 14.8926C12.7173 15.4528 12.6076 16.0448 12.6016 16.6426C12.5572 17.6339 12.5459 17.9363 12.5459 20.4531C12.5459 22.9699 12.5572 23.2687 12.6016 24.2637C12.608 24.8606 12.7172 25.452 12.9248 26.0117C13.0759 26.4212 13.3164 26.792 13.6289 27.0967C13.9329 27.4099 14.304 27.6506 14.7139 27.8008C15.2743 28.0097 15.8667 28.1197 16.4648 28.126C17.4562 28.1703 17.7589 28.1816 20.2764 28.1816C22.7934 28.1816 23.092 28.1703 24.0869 28.126C24.6848 28.1196 25.2774 28.0107 25.8379 27.8027C26.245 27.6455 26.6143 27.4042 26.9229 27.0957C27.2315 26.7871 27.4727 26.4169 27.6299 26.0098C27.8383 25.4496 27.948 24.8575 27.9541 24.2598C27.998 23.2647 28.0098 22.9701 28.0098 20.4531C28.0098 17.9363 27.9984 17.6376 27.9541 16.6426C27.9476 16.0449 27.8379 15.4529 27.6299 14.8926C27.4789 14.4832 27.2382 14.1122 26.9258 13.8076C26.6217 13.4945 26.2507 13.2535 25.8408 13.1035C25.2806 12.8951 24.6885 12.7855 24.0908 12.7793C23.0995 12.7354 22.7967 12.7246 20.2793 12.7246ZM20.2139 15.5938C21.4985 15.5945 22.7303 16.1053 23.6387 17.0137C24.5472 17.9223 25.0581 19.1545 25.0586 20.4395C25.0586 21.3979 24.7747 22.3349 24.2422 23.1318C23.7098 23.9286 22.9527 24.5493 22.0674 24.916C21.182 25.2827 20.2075 25.3793 19.2676 25.1924C18.3276 25.0054 17.4638 24.5439 16.7861 23.8662C16.1085 23.1885 15.6469 22.3247 15.46 21.3848C15.273 20.4448 15.3695 19.4704 15.7363 18.585C16.1032 17.6995 16.7245 16.9426 17.5215 16.4102C18.3184 15.8779 19.2556 15.5937 20.2139 15.5938ZM21.417 17.5361C20.8428 17.2983 20.2111 17.2362 19.6016 17.3574C18.9919 17.4786 18.4318 17.7774 17.9922 18.2168C17.5526 18.6563 17.2532 19.2165 17.1318 19.8262C17.0104 20.4358 17.0728 21.0682 17.3105 21.6426C17.5483 22.2167 17.9511 22.7073 18.4678 23.0527C18.9845 23.3982 19.5923 23.5828 20.2139 23.583C21.0474 23.5829 21.847 23.2523 22.4365 22.6631C23.026 22.0737 23.3571 21.274 23.3574 20.4404C23.3574 19.8188 23.1735 19.2102 22.8281 18.6934C22.4828 18.1766 21.9912 17.774 21.417 17.5361ZM25.2881 14.2695C25.5883 14.2695 25.8766 14.3883 26.0889 14.6006C26.3011 14.8128 26.4199 15.1012 26.4199 15.4014C26.4199 15.6252 26.3538 15.8442 26.2295 16.0303C26.1052 16.2163 25.9284 16.3616 25.7217 16.4473C25.5149 16.5329 25.2869 16.5554 25.0674 16.5117C24.8478 16.468 24.6456 16.3604 24.4873 16.2021C24.329 16.0439 24.2214 15.8416 24.1777 15.6221C24.1341 15.4026 24.1565 15.1745 24.2422 14.9678C24.3279 14.7611 24.4731 14.5843 24.6592 14.46C24.8453 14.3356 25.0643 14.2695 25.2881 14.2695Z" fill="white"/>
</svg>
