<svg width="441" height="57" viewBox="0 0 441 57" fill="none" xmlns="http://www.w3.org/2000/svg">
<path d="M254.636 17.4572H264.478V18.9544H260.41V25.3377H258.697V18.9544H254.63V17.4572H254.636ZM251.709 23.7974H251.629L245.152 17.4572H242.582V25.3377H244.295V19.0099H244.375L250.852 25.3377H253.41V17.4572H251.709V23.7974ZM277.745 39.7125C277.319 39.7125 276.993 39.9713 276.993 40.3533C276.993 40.7477 277.344 40.9818 277.745 40.9818C278.145 40.9818 278.484 40.7477 278.484 40.3533C278.484 39.959 278.158 39.7125 277.745 39.7125ZM279.858 39.7125C279.445 39.7125 279.119 39.9713 279.119 40.3533C279.119 40.7477 279.47 40.9818 279.858 40.9818C280.247 40.9818 280.61 40.7477 280.61 40.3533C280.61 39.959 280.284 39.7125 279.858 39.7125ZM239.069 25.3377H240.783V17.4572H239.069V25.3377ZM274.646 23.9452H267.405V22.0968H274.646V20.6919H267.405V18.8558H274.646V17.4572H265.692V25.3377H274.646V23.9391V23.9452ZM273.831 30.612C273.418 30.612 273.092 30.8708 273.092 31.2405C273.092 31.6471 273.443 31.8813 273.831 31.8813C274.22 31.8813 274.583 31.6471 274.583 31.2405C274.583 30.8708 274.257 30.612 273.831 30.612ZM270.966 31.2466C270.966 31.6533 271.317 31.8874 271.718 31.8874C272.118 31.8874 272.457 31.6533 272.457 31.2466C272.457 30.8769 272.13 30.6182 271.718 30.6182C271.305 30.6182 270.966 30.8769 270.966 31.2466ZM390.534 17.4572H388.821V25.3377H390.534V17.4572ZM400.972 31.2466C400.972 31.6533 401.323 31.8874 401.712 31.8874C402.1 31.8874 402.463 31.6533 402.463 31.2466C402.463 30.8769 402.137 30.6182 401.712 30.6182C401.286 30.6182 400.972 30.8769 400.972 31.2466ZM372.132 23.8405H365.464V17.4572H363.751V25.3377H372.126V23.8405H372.132ZM408.658 25.4486H409.909C412.941 25.4486 414.371 24.7277 414.704 22.7376H412.935C412.639 23.6372 411.875 24.0561 409.576 24.0561H408.991C406.076 24.0561 405.503 23.4153 405.503 21.5669V21.2403C405.503 19.4042 406.076 18.7387 408.991 18.7387H409.576C411.875 18.7387 412.639 19.1577 412.935 20.0573H414.704C414.365 18.0671 412.935 17.3462 409.909 17.3462H408.658C405.09 17.3462 403.771 18.3567 403.771 21.0616V21.7394C403.771 24.4443 405.09 25.4548 408.658 25.4548V25.4486ZM420.336 25.4486H421.71C425.007 25.4486 426.055 24.4382 426.055 22.0044V17.4572H424.311V21.9058C424.311 23.4585 423.67 24.0561 421.316 24.0561H420.743C418.376 24.0561 417.736 23.4585 417.736 21.9058V17.4572H416.004V22.0044C416.004 24.4382 417.052 25.4486 420.336 25.4486ZM429.488 17.4572H427.774V25.3377H429.488V17.4572ZM323.972 17.4572H322.258V25.3377H323.972V17.4572ZM302.051 25.3377H300.116L304.911 17.4572H307.548L312.343 25.3377H310.42L309.224 23.3907H303.247L302.051 25.3377ZM304.091 21.9859H308.38L306.273 18.5416H306.205L304.085 21.9859H304.091ZM315.264 25.3377H316.977V18.9544H321.044V17.4572H311.203V18.9544H315.27V25.3377H315.264ZM352.283 25.3377H350.347L355.142 17.4572H357.78L362.574 25.3377H360.651L359.456 23.3907H353.478L352.283 25.3377ZM354.316 21.9859H358.605L356.498 18.5416H356.43L354.31 21.9859H354.316ZM340.05 19.0099H340.13L346.607 25.3377H349.164V17.4572H347.463V23.7974H347.383L340.906 17.4572H338.337V25.3377H340.05V19.0099ZM289.818 19.0099H289.898L296.375 25.3377H298.933V17.4572H297.232V23.7974H297.152L290.675 17.4572H288.105V25.3377H289.818V19.0099ZM439.957 36.028C439.957 36.7858 439.747 37.784 439.47 38.6528H400.171C397.965 38.6528 396.627 37.6238 396.627 35.9294V35.917C396.627 34.2473 397.983 33.1752 400.097 33.1752H401.564V32.6884H402.919V37.4081H405.267V33.1752H406.617V37.4081H430.553V30.7907H431.902V37.4081H438.447C438.607 36.8721 438.693 36.373 438.693 35.9848C438.693 34.9004 437.8 34.2226 436.339 34.2226C435.618 34.2226 434.99 34.3459 434.115 34.6847L433.689 33.5387C434.645 33.1813 435.569 32.978 436.456 32.978C438.681 32.978 439.969 34.1425 439.969 36.0218L439.957 36.028ZM401.564 34.4136H399.813C398.667 34.4136 397.915 34.9743 397.915 35.9232V35.9355C397.915 36.8536 398.68 37.4205 399.813 37.4205H401.564V34.4198V34.4136ZM430.677 18.9544H434.744V25.3377H436.458V18.9544H440.525V17.4572H430.683V18.9544H430.677ZM405.958 39.7249C405.532 39.7249 405.193 39.9775 405.193 40.3533C405.193 40.7723 405.557 40.9941 405.958 40.9941C406.358 40.9941 406.709 40.7723 406.709 40.3533C406.709 39.9775 406.371 39.7249 405.958 39.7249ZM399.604 30.612C399.179 30.612 398.852 30.8708 398.852 31.2405C398.852 31.6471 399.203 31.8813 399.604 31.8813C400.005 31.8813 400.343 31.6471 400.343 31.2405C400.343 30.8708 400.017 30.612 399.604 30.612ZM398.527 22.448H394.047V25.3439H392.333V17.4633H399.168C401.553 17.4633 402.409 18.0363 402.409 19.4473V19.817C402.409 21 401.848 21.4929 400.677 21.5854V21.6285C401.818 21.7641 402.409 22.1029 402.409 23.4523V25.3439H400.696V23.6803C400.696 22.6883 400.326 22.4541 398.521 22.4541L398.527 22.448ZM394.047 21.037H398.835C400.277 21.037 400.702 20.8213 400.702 19.9895V19.9094C400.702 19.0407 400.277 18.8497 398.527 18.8497H394.047V21.037ZM387.379 22.7376H385.61C385.314 23.6372 384.55 24.0561 382.251 24.0561H381.666C378.751 24.0561 378.178 23.4153 378.178 21.5669V21.2403C378.178 19.4042 378.751 18.7387 381.666 18.7387H382.251C384.55 18.7387 385.314 19.1577 385.61 20.0573H387.379C387.04 18.0671 385.61 17.3462 382.584 17.3462H381.333C377.765 17.3462 376.446 18.3567 376.446 21.0616V21.7394C376.446 24.4443 377.765 25.4548 381.333 25.4548H382.584C385.616 25.4548 387.046 24.7339 387.379 22.7437V22.7376ZM328.223 38.6589H329.578V30.803H328.223V38.6589ZM324.944 37.4143H299.16V35.9787C299.16 34.1364 298.217 33.1813 296.146 33.1813H294.797V34.4136H296.343C297.36 34.4136 297.884 34.9066 297.884 35.8678V37.4205H292.917V38.6589H326.281V30.803H324.932V37.4205L324.944 37.4143ZM291.746 33.1813H291.758V37.784L291.746 37.8518V38.0551C291.746 40.187 290.896 40.797 288.498 40.797C287.839 40.797 287.032 40.7169 286.304 40.5567L286.021 39.2566C286.933 39.4722 287.71 39.5647 288.449 39.5647C289.799 39.5647 290.304 39.349 290.39 38.6528H289.01C286.804 38.6528 285.466 37.6238 285.466 35.9294V35.917C285.466 34.2473 286.822 33.1752 288.936 33.1752H291.746V33.1813ZM290.403 34.4136H288.652C287.506 34.4136 286.754 34.9743 286.754 35.9232V35.9355C286.754 36.8536 287.519 37.4205 288.652 37.4205H290.403V34.4198V34.4136ZM284.697 25.3377V23.6741C284.697 22.6821 284.328 22.448 282.522 22.448H278.042V25.3439H276.328V17.4633H283.163C285.548 17.4633 286.404 18.0363 286.404 19.4473V19.817C286.404 21 285.844 21.4929 284.673 21.5854V21.6285C285.813 21.7641 286.404 22.1029 286.404 23.4523V25.3439H284.691L284.697 25.3377ZM284.697 19.9895V19.9094C284.697 19.0407 284.272 18.8497 282.522 18.8497H278.042V21.037H282.83C284.272 21.037 284.697 20.8213 284.697 19.9895ZM390.477 30.7968H392.462V38.6528H388.407C388.185 40.2486 387.174 40.797 384.925 40.797C384.278 40.797 383.439 40.7415 382.706 40.6306L382.367 38.967C383.298 39.0841 384.105 39.1395 385.159 39.1395C386.028 39.1395 386.367 39.0348 386.465 38.6528H385.51C383.174 38.6528 381.8 37.5991 381.8 35.8431V35.8308C381.8 34.124 383.23 33.0027 385.405 33.0027H388.462V36.8474H390.477V30.7907V30.7968ZM386.49 34.808H384.974C384.21 34.808 383.661 35.1777 383.661 35.837V35.8493C383.661 36.4777 384.21 36.8598 384.974 36.8598H386.49V34.8141V34.808ZM331.767 25.4486H330.498C326.874 25.4486 325.518 24.4381 325.518 21.7332V21.0555C325.518 18.3506 326.868 17.3401 330.498 17.3401H331.767C335.391 17.3401 336.765 18.3506 336.765 21.0555V21.7332C336.765 24.4381 335.391 25.4486 331.767 25.4486ZM335.033 21.2403C335.033 19.4042 334.436 18.7387 331.465 18.7387H330.824C327.817 18.7387 327.256 19.4042 327.256 21.2403V21.5669C327.256 23.3907 327.817 24.0561 330.824 24.0561H331.465C334.436 24.0561 335.033 23.3907 335.033 21.5669V21.2403ZM364.57 39.4784C364.009 39.4784 363.559 39.805 363.559 40.3041C363.559 40.8647 364.033 41.1358 364.57 41.1358C365.106 41.1358 365.586 40.8647 365.586 40.3041C365.586 39.8111 365.143 39.4784 364.57 39.4784ZM282.508 30.7968H283.858V38.6528H272.291C270.084 38.6528 268.747 37.6238 268.747 35.9294V35.917C268.747 34.2473 270.103 33.1752 272.217 33.1752H273.683V32.6884H275.039V37.4081H278.077V33.1752H279.427V37.4081H282.514V30.7907L282.508 30.7968ZM273.683 34.4136H271.933C270.787 34.4136 270.035 34.9743 270.035 35.9232V35.9355C270.035 36.8536 270.799 37.4205 271.933 37.4205H273.683V34.4198V34.4136ZM378.67 35.6151C378.67 36.4778 378.201 36.9399 377.332 36.9399C376.513 36.9399 376.007 36.4777 376.007 35.6521V33.6743H374.023V35.572C374.023 36.5209 373.29 36.8536 372.421 36.8536H371.601V33.6743H369.617V36.8536H366.751V33.0088H364.779V36.8536H340.554V30.7968H338.582V38.0613H337.423C336.234 38.0613 335.482 37.556 335.482 36.4346V33.6743H333.51V36.6564C333.51 38.6897 334.816 39.8604 337.109 39.8604H340.554V38.6466H372.427C373.413 38.6466 374.269 38.3262 374.867 37.7039C375.336 38.3324 376.297 38.739 377.412 38.739C379.637 38.739 380.635 37.71 380.635 35.5905V32.9718H378.663V35.5967L378.67 35.6151ZM367.121 39.4784C366.548 39.4784 366.11 39.805 366.11 40.3041C366.11 40.8647 366.585 41.1358 367.121 41.1358C367.657 41.1358 368.132 40.8647 368.132 40.3041C368.132 39.8111 367.706 39.4784 367.121 39.4784Z" fill="#26F0D2"/>
<path d="M19.3422 45.646H39.7774C43.6167 45.646 46.926 43.3354 48.3989 40.0329C31.994 40.0513 18.6335 40.6305 12.8776 43.0705C14.5662 44.6663 16.8402 45.646 19.3422 45.646ZM152.467 45.6398V45.6522H160.46V40.0329C156.053 40.0329 152.479 42.1894 152.467 45.6398ZM229.401 27.562V36.225C229.401 41.4254 225.167 45.6522 219.972 45.6522H199.537C194.366 45.6522 190.151 41.4685 190.108 36.3051C190.151 31.9305 193.713 29.9218 198.095 29.9218V36.2189C198.095 37.0137 198.742 37.6607 199.537 37.6607H219.972C220.767 37.6607 221.414 37.0137 221.414 36.2189V28.5663H179.293V36.2189C179.293 37.0137 179.946 37.6607 180.753 37.6607H187.754V45.6522H162.82V37.6607H171.306V28.5724H160.466V38.6773H140.499L134.127 41.6287C133.622 41.8628 133.295 42.3742 133.295 42.9349V45.646H125.302V38.6712H0.305908L0.324398 37.6545H10.0305C9.95655 37.1801 9.91341 36.6995 9.91341 36.2127V10.4761H17.9063V36.2127C17.9063 37.0076 18.5534 37.6545 19.3484 37.6545H39.7836C40.5785 37.6545 41.2256 37.0076 41.2256 36.2127L41.2503 27.5558H49.2432L49.2185 36.2127C49.2185 36.7056 49.1754 37.1862 49.1014 37.6545H52.6079C51.9485 36.0957 51.5788 34.3889 51.5788 32.5898V27.5373C51.5849 23.1318 55.1839 19.8477 59.5655 19.8169C59.5655 19.8477 59.5655 19.8785 59.5655 19.9094V32.5898C59.5655 35.3809 61.8395 37.6545 64.6312 37.6545H73.684C76.4757 37.6545 78.7497 35.3809 78.7497 32.5898V28.5663H69.1607V27.5496H78.7497V27.5373C78.7559 23.1072 82.3302 19.8169 86.7426 19.8169V27.5558H97.3423L93.7988 25.9168C90.7791 24.5182 89.0166 21.6469 89.0906 18.4676H27.5076V17.4509H41.2318V10.4822H50.1367C54.4875 10.4822 58.1543 13.4398 59.2389 17.4509H78.7497V10.4822H86.7426V17.4509H89.183C89.2076 17.2907 89.2261 17.1305 89.2631 16.9703C90.0396 13.1625 93.466 10.4761 97.3546 10.4761H113.538C117.895 10.4761 121.561 13.4336 122.64 17.4509H126.824C129.018 13.3104 133.369 10.4884 138.367 10.4884H147.42C152.417 10.4884 156.768 13.3165 158.962 17.4509H162.832V10.4822H187.766V18.4737H160.977H138.367C135.575 18.4737 133.301 20.7473 133.301 23.5385V27.5558H145.503L151.647 24.7092C152.134 24.4812 152.479 23.9944 152.479 23.4584C152.479 22.9223 152.374 22.4171 152.214 21.9365C152.263 21.8502 152.325 21.764 152.393 21.6777C153.33 20.4885 155.733 19.8354 159.936 19.8354C160.287 21.0123 160.478 22.2507 160.478 23.5385V27.5558H171.318V27.1923C171.509 22.9531 175.034 19.8416 179.311 19.8293V27.5558H190.126V10.4884H198.119V27.5558H229.425L229.401 27.562ZM97.6504 18.905L116.379 27.5558H125.296V23.5385C125.296 21.7393 125.659 20.0264 126.325 18.4676H97.7429C97.5025 18.4676 97.4286 18.8003 97.6504 18.8989V18.905ZM143.303 28.5724H86.7303V32.5959C86.7303 34.3951 86.3544 36.1018 85.695 37.6607H114.641C114.918 37.6607 115.343 37.5005 115.491 36.8412C115.67 36.0279 115.103 35.7629 114.912 35.6767L107.917 32.4419C109.994 30.4579 116.151 29.9218 120.563 29.9157C122.732 31.838 123.811 34.6662 123.447 37.6545H125.308V37.6422C125.314 33.2182 128.895 29.9218 133.301 29.9157V33.1997L143.315 28.5601L143.303 28.5724ZM152.467 33.132L142.687 37.6607H152.467V33.132ZM122.948 19.9155C122.948 19.9155 122.948 19.8539 122.948 19.8231C116.742 19.8231 114.967 20.4454 114.961 21.5914V22.4725H122.954V19.9155H122.948ZM64.625 45.6522H73.6779C78.115 45.6522 82.0344 43.4279 84.3947 40.039C67.0531 40.039 60.6255 40.803 56.854 43.0828C59.0294 44.6971 61.7163 45.6522 64.625 45.6522ZM87.9073 44.4876V45.646H114.474C118.153 45.646 121.506 43.4279 122.843 40.0329C108.885 40.0329 87.9135 40.9448 87.9073 44.4876Z" fill="#26F0D2"/>
</svg>
